<mxfile host="Electron" agent="Mozilla/5.0 (Windows NT 10.0; Win64; x64) AppleWebKit/537.36 (KHTML, like Gecko) draw.io/26.1.1 Chrome/132.0.6834.210 Electron/34.3.3 Safari/537.36" version="26.1.1">
  <diagram name="Page-1" id="ukCpInQGITsL0yRj2w2E">
    <mxGraphModel dx="1220" dy="789" grid="1" gridSize="10" guides="1" tooltips="1" connect="1" arrows="1" fold="1" page="1" pageScale="1" pageWidth="827" pageHeight="1169" math="0" shadow="0">
      <root>
        <mxCell id="0" />
        <mxCell id="1" parent="0" />
        <mxCell id="90Y0HqGD6L3kBnIdup4U-1" value="" style="whiteSpace=wrap;html=1;aspect=fixed;dashed=1;" vertex="1" parent="1">
          <mxGeometry x="-630" y="220" width="900" height="900" as="geometry" />
        </mxCell>
        <mxCell id="90Y0HqGD6L3kBnIdup4U-54" value="" style="edgeStyle=orthogonalEdgeStyle;rounded=0;orthogonalLoop=1;jettySize=auto;html=1;" edge="1" parent="1" source="90Y0HqGD6L3kBnIdup4U-2" target="90Y0HqGD6L3kBnIdup4U-53">
          <mxGeometry relative="1" as="geometry" />
        </mxCell>
        <mxCell id="90Y0HqGD6L3kBnIdup4U-2" value="&lt;b&gt;NGINX&lt;/b&gt;" style="outlineConnect=0;dashed=0;verticalLabelPosition=bottom;verticalAlign=top;align=center;html=1;shape=mxgraph.aws3.classic_load_balancer;fillColor=#F58534;gradientColor=none;" vertex="1" parent="1">
          <mxGeometry x="-660" y="565" width="69" height="72" as="geometry" />
        </mxCell>
        <mxCell id="90Y0HqGD6L3kBnIdup4U-4" value="" style="edgeStyle=orthogonalEdgeStyle;rounded=0;orthogonalLoop=1;jettySize=auto;html=1;" edge="1" parent="1" source="90Y0HqGD6L3kBnIdup4U-3" target="90Y0HqGD6L3kBnIdup4U-2">
          <mxGeometry relative="1" as="geometry" />
        </mxCell>
        <mxCell id="90Y0HqGD6L3kBnIdup4U-7" value="" style="rounded=0;whiteSpace=wrap;html=1;dashed=1;" vertex="1" parent="1">
          <mxGeometry x="-470" y="250" width="720" height="510" as="geometry" />
        </mxCell>
        <mxCell id="90Y0HqGD6L3kBnIdup4U-3" value="&lt;b&gt;Internet&lt;/b&gt;" style="ellipse;shape=cloud;whiteSpace=wrap;html=1;" vertex="1" parent="1">
          <mxGeometry x="-820" y="565" width="120" height="80" as="geometry" />
        </mxCell>
        <mxCell id="90Y0HqGD6L3kBnIdup4U-8" value="&lt;b&gt;Private Docker Registry&lt;/b&gt;" style="image;sketch=0;aspect=fixed;html=1;points=[];align=center;fontSize=12;image=img/lib/mscae/Docker.svg;" vertex="1" parent="1">
          <mxGeometry x="-430" y="880" width="50" height="41" as="geometry" />
        </mxCell>
        <mxCell id="90Y0HqGD6L3kBnIdup4U-11" value="&lt;b&gt;Eureka Server&lt;/b&gt;" style="sketch=0;points=[[0,0,0],[0.25,0,0],[0.5,0,0],[0.75,0,0],[1,0,0],[0,1,0],[0.25,1,0],[0.5,1,0],[0.75,1,0],[1,1,0],[0,0.25,0],[0,0.5,0],[0,0.75,0],[1,0.25,0],[1,0.5,0],[1,0.75,0]];outlineConnect=0;fontColor=#232F3E;fillColor=#D1E8FF;strokeColor=#ffffff;dashed=0;verticalLabelPosition=bottom;verticalAlign=top;align=center;html=1;fontSize=12;fontStyle=0;aspect=fixed;shape=mxgraph.aws4.resourceIcon;resIcon=mxgraph.aws4.application_discovery_service;" vertex="1" parent="1">
          <mxGeometry x="-260" y="875.25" width="38" height="38" as="geometry" />
        </mxCell>
        <mxCell id="90Y0HqGD6L3kBnIdup4U-21" style="edgeStyle=orthogonalEdgeStyle;rounded=0;orthogonalLoop=1;jettySize=auto;html=1;startArrow=classic;startFill=0;endArrow=none;exitX=0.5;exitY=0;exitDx=0;exitDy=0;exitPerimeter=0;entryX=0.583;entryY=1;entryDx=0;entryDy=0;entryPerimeter=0;" edge="1" parent="1" source="90Y0HqGD6L3kBnIdup4U-14" target="90Y0HqGD6L3kBnIdup4U-7">
          <mxGeometry relative="1" as="geometry">
            <mxPoint x="-50" y="700" as="targetPoint" />
            <Array as="points">
              <mxPoint x="-49" y="810" />
              <mxPoint x="-50" y="810" />
              <mxPoint x="-50" y="790" />
              <mxPoint x="-44" y="790" />
              <mxPoint x="-44" y="760" />
            </Array>
          </mxGeometry>
        </mxCell>
        <mxCell id="90Y0HqGD6L3kBnIdup4U-22" value="&lt;b&gt;Environment Configurations&lt;/b&gt;" style="edgeLabel;html=1;align=center;verticalAlign=middle;resizable=0;points=[];" vertex="1" connectable="0" parent="90Y0HqGD6L3kBnIdup4U-21">
          <mxGeometry x="0.2028" y="1" relative="1" as="geometry">
            <mxPoint x="2" y="12" as="offset" />
          </mxGeometry>
        </mxCell>
        <mxCell id="90Y0HqGD6L3kBnIdup4U-14" value="&lt;b&gt;Config Server&lt;/b&gt;" style="sketch=0;points=[[0,0,0],[0.25,0,0],[0.5,0,0],[0.75,0,0],[1,0,0],[0,1,0],[0.25,1,0],[0.5,1,0],[0.75,1,0],[1,1,0],[0,0.25,0],[0,0.5,0],[0,0.75,0],[1,0.25,0],[1,0.5,0],[1,0.75,0]];points=[[0,0,0],[0.25,0,0],[0.5,0,0],[0.75,0,0],[1,0,0],[0,1,0],[0.25,1,0],[0.5,1,0],[0.75,1,0],[1,1,0],[0,0.25,0],[0,0.5,0],[0,0.75,0],[1,0.25,0],[1,0.5,0],[1,0.75,0]];outlineConnect=0;fontColor=#232F3E;fillColor=#CDEBF4;strokeColor=#ffffff;dashed=0;verticalLabelPosition=bottom;verticalAlign=top;align=center;html=1;fontSize=12;fontStyle=0;aspect=fixed;shape=mxgraph.aws4.resourceIcon;resIcon=mxgraph.aws4.config;" vertex="1" parent="1">
          <mxGeometry x="-70" y="873" width="42.5" height="42.5" as="geometry" />
        </mxCell>
        <mxCell id="90Y0HqGD6L3kBnIdup4U-15" style="edgeStyle=orthogonalEdgeStyle;rounded=0;orthogonalLoop=1;jettySize=auto;html=1;entryX=1;entryY=0.5;entryDx=0;entryDy=0;entryPerimeter=0;" edge="1" parent="1" source="90Y0HqGD6L3kBnIdup4U-14" target="90Y0HqGD6L3kBnIdup4U-11">
          <mxGeometry relative="1" as="geometry" />
        </mxCell>
        <mxCell id="90Y0HqGD6L3kBnIdup4U-16" style="edgeStyle=orthogonalEdgeStyle;rounded=0;orthogonalLoop=1;jettySize=auto;html=1;entryX=0.317;entryY=0.998;entryDx=0;entryDy=0;entryPerimeter=0;startArrow=classic;startFill=0;endArrow=none;exitX=0.5;exitY=0;exitDx=0;exitDy=0;exitPerimeter=0;" edge="1" parent="1" source="90Y0HqGD6L3kBnIdup4U-11" target="90Y0HqGD6L3kBnIdup4U-7">
          <mxGeometry relative="1" as="geometry">
            <Array as="points">
              <mxPoint x="-241" y="790" />
              <mxPoint x="-242" y="790" />
            </Array>
          </mxGeometry>
        </mxCell>
        <mxCell id="90Y0HqGD6L3kBnIdup4U-18" value="&lt;b&gt;Service Discovery&lt;/b&gt;" style="edgeLabel;html=1;align=center;verticalAlign=middle;resizable=0;points=[];" vertex="1" connectable="0" parent="90Y0HqGD6L3kBnIdup4U-16">
          <mxGeometry x="0.347" relative="1" as="geometry">
            <mxPoint y="14" as="offset" />
          </mxGeometry>
        </mxCell>
        <mxCell id="90Y0HqGD6L3kBnIdup4U-19" style="edgeStyle=orthogonalEdgeStyle;rounded=0;orthogonalLoop=1;jettySize=auto;html=1;entryX=0.09;entryY=0.998;entryDx=0;entryDy=0;entryPerimeter=0;startArrow=classic;startFill=0;endArrow=none;" edge="1" parent="1" source="90Y0HqGD6L3kBnIdup4U-8" target="90Y0HqGD6L3kBnIdup4U-7">
          <mxGeometry relative="1" as="geometry">
            <Array as="points">
              <mxPoint x="-405" y="891" />
            </Array>
          </mxGeometry>
        </mxCell>
        <mxCell id="90Y0HqGD6L3kBnIdup4U-20" value="&lt;b&gt;Pull Images&lt;/b&gt;" style="edgeLabel;html=1;align=center;verticalAlign=middle;resizable=0;points=[];" vertex="1" connectable="0" parent="90Y0HqGD6L3kBnIdup4U-19">
          <mxGeometry x="0.3022" y="3" relative="1" as="geometry">
            <mxPoint x="3" y="9" as="offset" />
          </mxGeometry>
        </mxCell>
        <mxCell id="90Y0HqGD6L3kBnIdup4U-23" value="&lt;b&gt;Jaeger&lt;/b&gt;" style="sketch=0;pointerEvents=1;shadow=0;dashed=0;html=1;strokeColor=none;labelPosition=center;verticalLabelPosition=bottom;verticalAlign=top;align=center;fillColor=#CDEBF4;shape=mxgraph.mscae.oms.track_changes" vertex="1" parent="1">
          <mxGeometry x="130" y="858.5" width="52" height="57" as="geometry" />
        </mxCell>
        <mxCell id="90Y0HqGD6L3kBnIdup4U-24" style="edgeStyle=orthogonalEdgeStyle;rounded=0;orthogonalLoop=1;jettySize=auto;html=1;entryX=0.868;entryY=0.996;entryDx=0;entryDy=0;entryPerimeter=0;startArrow=classic;startFill=0;endArrow=none;" edge="1" parent="1" source="90Y0HqGD6L3kBnIdup4U-23" target="90Y0HqGD6L3kBnIdup4U-7">
          <mxGeometry relative="1" as="geometry">
            <Array as="points">
              <mxPoint x="156" y="779" />
              <mxPoint x="155" y="779" />
            </Array>
          </mxGeometry>
        </mxCell>
        <mxCell id="90Y0HqGD6L3kBnIdup4U-25" value="&lt;b&gt;Distributed Tracing&lt;/b&gt;" style="edgeLabel;html=1;align=center;verticalAlign=middle;resizable=0;points=[];" vertex="1" connectable="0" parent="90Y0HqGD6L3kBnIdup4U-24">
          <mxGeometry x="-0.04" relative="1" as="geometry">
            <mxPoint as="offset" />
          </mxGeometry>
        </mxCell>
        <mxCell id="90Y0HqGD6L3kBnIdup4U-26" value="Inventory" style="shape=ellipse;fillColor=#A56EFF;aspect=fixed;resizable=0;labelPosition=center;verticalLabelPosition=bottom;align=center;verticalAlign=top;strokeColor=none;fontSize=14;" vertex="1" parent="1">
          <mxGeometry x="-413" y="300" width="48" height="48" as="geometry" />
        </mxCell>
        <mxCell id="90Y0HqGD6L3kBnIdup4U-27" value="" style="fillColor=#ffffff;strokeColor=none;dashed=0;outlineConnect=0;html=1;labelPosition=center;verticalLabelPosition=bottom;verticalAlign=top;part=1;movable=0;resizable=0;rotatable=0;shape=mxgraph.ibm_cloud.microservices--1" vertex="1" parent="90Y0HqGD6L3kBnIdup4U-26">
          <mxGeometry width="24" height="24" relative="1" as="geometry">
            <mxPoint x="12" y="12" as="offset" />
          </mxGeometry>
        </mxCell>
        <mxCell id="90Y0HqGD6L3kBnIdup4U-28" value="Management" style="shape=ellipse;fillColor=#A56EFF;aspect=fixed;resizable=0;labelPosition=center;verticalLabelPosition=bottom;align=center;verticalAlign=top;strokeColor=none;fontSize=14;" vertex="1" parent="1">
          <mxGeometry x="-413" y="390" width="48" height="48" as="geometry" />
        </mxCell>
        <mxCell id="90Y0HqGD6L3kBnIdup4U-29" value="" style="fillColor=#ffffff;strokeColor=none;dashed=0;outlineConnect=0;html=1;labelPosition=center;verticalLabelPosition=bottom;verticalAlign=top;part=1;movable=0;resizable=0;rotatable=0;shape=mxgraph.ibm_cloud.microservices--1" vertex="1" parent="90Y0HqGD6L3kBnIdup4U-28">
          <mxGeometry width="24" height="24" relative="1" as="geometry">
            <mxPoint x="12" y="12" as="offset" />
          </mxGeometry>
        </mxCell>
        <mxCell id="90Y0HqGD6L3kBnIdup4U-30" value="Menu" style="shape=ellipse;fillColor=#A56EFF;aspect=fixed;resizable=0;labelPosition=center;verticalLabelPosition=bottom;align=center;verticalAlign=top;strokeColor=none;fontSize=14;" vertex="1" parent="1">
          <mxGeometry x="-413" y="481" width="48" height="48" as="geometry" />
        </mxCell>
        <mxCell id="90Y0HqGD6L3kBnIdup4U-31" value="" style="fillColor=#ffffff;strokeColor=none;dashed=0;outlineConnect=0;html=1;labelPosition=center;verticalLabelPosition=bottom;verticalAlign=top;part=1;movable=0;resizable=0;rotatable=0;shape=mxgraph.ibm_cloud.microservices--1" vertex="1" parent="90Y0HqGD6L3kBnIdup4U-30">
          <mxGeometry width="24" height="24" relative="1" as="geometry">
            <mxPoint x="12" y="12" as="offset" />
          </mxGeometry>
        </mxCell>
        <mxCell id="90Y0HqGD6L3kBnIdup4U-32" value="Order" style="shape=ellipse;fillColor=#A56EFF;aspect=fixed;resizable=0;labelPosition=center;verticalLabelPosition=bottom;align=center;verticalAlign=top;strokeColor=none;fontSize=14;" vertex="1" parent="1">
          <mxGeometry x="-368" y="565" width="48" height="48" as="geometry" />
        </mxCell>
        <mxCell id="90Y0HqGD6L3kBnIdup4U-33" value="" style="fillColor=#ffffff;strokeColor=none;dashed=0;outlineConnect=0;html=1;labelPosition=center;verticalLabelPosition=bottom;verticalAlign=top;part=1;movable=0;resizable=0;rotatable=0;shape=mxgraph.ibm_cloud.microservices--1" vertex="1" parent="90Y0HqGD6L3kBnIdup4U-32">
          <mxGeometry width="24" height="24" relative="1" as="geometry">
            <mxPoint x="12" y="12" as="offset" />
          </mxGeometry>
        </mxCell>
        <mxCell id="90Y0HqGD6L3kBnIdup4U-34" value="Payment" style="shape=ellipse;fillColor=#A56EFF;aspect=fixed;resizable=0;labelPosition=center;verticalLabelPosition=bottom;align=center;verticalAlign=top;strokeColor=none;fontSize=14;" vertex="1" parent="1">
          <mxGeometry x="-320" y="300" width="48" height="48" as="geometry" />
        </mxCell>
        <mxCell id="90Y0HqGD6L3kBnIdup4U-35" value="" style="fillColor=#ffffff;strokeColor=none;dashed=0;outlineConnect=0;html=1;labelPosition=center;verticalLabelPosition=bottom;verticalAlign=top;part=1;movable=0;resizable=0;rotatable=0;shape=mxgraph.ibm_cloud.microservices--1" vertex="1" parent="90Y0HqGD6L3kBnIdup4U-34">
          <mxGeometry width="24" height="24" relative="1" as="geometry">
            <mxPoint x="12" y="12" as="offset" />
          </mxGeometry>
        </mxCell>
        <mxCell id="90Y0HqGD6L3kBnIdup4U-36" value="Recipe" style="shape=ellipse;fillColor=#A56EFF;aspect=fixed;resizable=0;labelPosition=center;verticalLabelPosition=bottom;align=center;verticalAlign=top;strokeColor=none;fontSize=14;" vertex="1" parent="1">
          <mxGeometry x="-320" y="390" width="48" height="48" as="geometry" />
        </mxCell>
        <mxCell id="90Y0HqGD6L3kBnIdup4U-37" value="" style="fillColor=#ffffff;strokeColor=none;dashed=0;outlineConnect=0;html=1;labelPosition=center;verticalLabelPosition=bottom;verticalAlign=top;part=1;movable=0;resizable=0;rotatable=0;shape=mxgraph.ibm_cloud.microservices--1" vertex="1" parent="90Y0HqGD6L3kBnIdup4U-36">
          <mxGeometry width="24" height="24" relative="1" as="geometry">
            <mxPoint x="12" y="12" as="offset" />
          </mxGeometry>
        </mxCell>
        <mxCell id="90Y0HqGD6L3kBnIdup4U-38" value="Table" style="shape=ellipse;fillColor=#A56EFF;aspect=fixed;resizable=0;labelPosition=center;verticalLabelPosition=bottom;align=center;verticalAlign=top;strokeColor=none;fontSize=14;" vertex="1" parent="1">
          <mxGeometry x="-330" y="481" width="48" height="48" as="geometry" />
        </mxCell>
        <mxCell id="90Y0HqGD6L3kBnIdup4U-39" value="" style="fillColor=#ffffff;strokeColor=none;dashed=0;outlineConnect=0;html=1;labelPosition=center;verticalLabelPosition=bottom;verticalAlign=top;part=1;movable=0;resizable=0;rotatable=0;shape=mxgraph.ibm_cloud.microservices--1" vertex="1" parent="90Y0HqGD6L3kBnIdup4U-38">
          <mxGeometry width="24" height="24" relative="1" as="geometry">
            <mxPoint x="12" y="12" as="offset" />
          </mxGeometry>
        </mxCell>
        <mxCell id="90Y0HqGD6L3kBnIdup4U-46" style="edgeStyle=orthogonalEdgeStyle;rounded=0;orthogonalLoop=1;jettySize=auto;html=1;" edge="1" parent="1" source="90Y0HqGD6L3kBnIdup4U-41" target="90Y0HqGD6L3kBnIdup4U-45">
          <mxGeometry relative="1" as="geometry" />
        </mxCell>
        <mxCell id="90Y0HqGD6L3kBnIdup4U-41" value="" style="rounded=0;whiteSpace=wrap;html=1;fillOpacity=10;dashed=1;dashPattern=8 8;" vertex="1" parent="1">
          <mxGeometry x="-436" y="282" width="180" height="366" as="geometry" />
        </mxCell>
        <mxCell id="90Y0HqGD6L3kBnIdup4U-43" value="" style="edgeStyle=orthogonalEdgeStyle;rounded=0;orthogonalLoop=1;jettySize=auto;html=1;startArrow=classic;startFill=0;endArrow=none;" edge="1" parent="1" source="90Y0HqGD6L3kBnIdup4U-42" target="90Y0HqGD6L3kBnIdup4U-41">
          <mxGeometry relative="1" as="geometry" />
        </mxCell>
        <mxCell id="90Y0HqGD6L3kBnIdup4U-42" value="" style="image;aspect=fixed;html=1;points=[];align=center;fontSize=12;image=img/lib/azure2/databases/Azure_Database_PostgreSQL_Server_Group.svg;" vertex="1" parent="1">
          <mxGeometry x="-390" y="680" width="60" height="68" as="geometry" />
        </mxCell>
        <mxCell id="90Y0HqGD6L3kBnIdup4U-48" style="edgeStyle=orthogonalEdgeStyle;rounded=0;orthogonalLoop=1;jettySize=auto;html=1;" edge="1" parent="1" source="90Y0HqGD6L3kBnIdup4U-45" target="90Y0HqGD6L3kBnIdup4U-47">
          <mxGeometry relative="1" as="geometry" />
        </mxCell>
        <mxCell id="90Y0HqGD6L3kBnIdup4U-45" value="&lt;b&gt;Message Broker&lt;/b&gt;" style="sketch=0;outlineConnect=0;fontColor=#232F3E;gradientColor=none;fillColor=#E7157B;strokeColor=none;dashed=0;verticalLabelPosition=bottom;verticalAlign=top;align=center;html=1;fontSize=12;fontStyle=0;aspect=fixed;pointerEvents=1;shape=mxgraph.aws4.mq_broker;" vertex="1" parent="1">
          <mxGeometry x="-190" y="438" width="78" height="69" as="geometry" />
        </mxCell>
        <mxCell id="90Y0HqGD6L3kBnIdup4U-52" value="" style="edgeStyle=orthogonalEdgeStyle;rounded=0;orthogonalLoop=1;jettySize=auto;html=1;" edge="1" parent="1" source="90Y0HqGD6L3kBnIdup4U-47" target="90Y0HqGD6L3kBnIdup4U-51">
          <mxGeometry relative="1" as="geometry" />
        </mxCell>
        <mxCell id="90Y0HqGD6L3kBnIdup4U-47" value="&lt;b&gt;Notification Service&lt;/b&gt;" style="image;sketch=0;aspect=fixed;html=1;points=[];align=center;fontSize=12;image=img/lib/mscae/Notification.svg;" vertex="1" parent="1">
          <mxGeometry x="-27.5" y="447.5" width="50" height="50" as="geometry" />
        </mxCell>
        <mxCell id="90Y0HqGD6L3kBnIdup4U-51" value="" style="image;aspect=fixed;html=1;points=[];align=center;fontSize=12;image=img/lib/azure2/databases/Azure_Database_PostgreSQL_Server.svg;" vertex="1" parent="1">
          <mxGeometry x="-25.5" y="560" width="48" height="64" as="geometry" />
        </mxCell>
        <mxCell id="90Y0HqGD6L3kBnIdup4U-55" value="" style="edgeStyle=orthogonalEdgeStyle;rounded=0;orthogonalLoop=1;jettySize=auto;html=1;" edge="1" parent="1" source="90Y0HqGD6L3kBnIdup4U-53" target="90Y0HqGD6L3kBnIdup4U-41">
          <mxGeometry relative="1" as="geometry" />
        </mxCell>
        <mxCell id="90Y0HqGD6L3kBnIdup4U-53" value="&lt;b&gt;Authentication&amp;nbsp;&lt;/b&gt;&lt;div&gt;&lt;b&gt;&amp;amp;&lt;/b&gt;&lt;/div&gt;&lt;div&gt;&lt;b&gt;&amp;nbsp;Authorisation&lt;/b&gt;&lt;/div&gt;" style="fillColor=#28A8E0;verticalLabelPosition=bottom;sketch=0;html=1;strokeColor=#ffffff;verticalAlign=top;align=center;points=[[0.145,0.145,0],[0.5,0,0],[0.855,0.145,0],[1,0.5,0],[0.855,0.855,0],[0.5,1,0],[0.145,0.855,0],[0,0.5,0]];pointerEvents=1;shape=mxgraph.cisco_safe.compositeIcon;bgIcon=ellipse;resIcon=mxgraph.cisco_safe.capability.identity_authorization;" vertex="1" parent="1">
          <mxGeometry x="-550" y="570.5" width="43" height="43" as="geometry" />
        </mxCell>
      </root>
    </mxGraphModel>
  </diagram>
</mxfile>
